<svg width="54" height="51" viewBox="0 0 54 51" fill="none" xmlns="http://www.w3.org/2000/svg">
<path d="M5.29301 51.008C4.03956 51.008 2.94834 50.5433 2.01935 49.6137C1.08978 48.6847 0.625 47.5935 0.625 46.34V7.18064C0.625 7.03541 0.632204 6.86512 0.646611 6.66975C0.661019 6.47439 0.740259 6.32772 0.884334 6.22975L5.55234 0.524405C5.6653 0.322701 5.81974 0.18583 6.01568 0.113793C6.2122 0.0417559 6.40353 0.0057373 6.58968 0.0057373H47.9102C48.0963 0.0057373 48.2877 0.0489596 48.4842 0.135404C48.6801 0.221849 48.8346 0.351516 48.9475 0.524405L53.702 6.22975C53.7596 6.34501 53.8028 6.49743 53.8316 6.68704C53.8605 6.87721 53.8749 7.04175 53.8749 7.18064V46.34C53.8749 47.5935 53.4104 48.6847 52.4814 49.6137C51.5518 50.5433 50.4603 51.008 49.2069 51.008H5.29301ZM3.99634 5.45175H50.59L47.5713 1.90752H6.89396L3.99634 5.45175ZM5.29301 49.1063H49.2069C50.0137 49.1063 50.6764 48.8469 51.1951 48.3283C51.7137 47.8096 51.9731 47.1468 51.9731 46.34V7.35353H2.52678V46.34C2.52678 47.1468 2.78611 47.8096 3.30478 48.3283C3.82345 48.8469 4.48619 49.1063 5.29301 49.1063ZM36.2402 38.0414L44.9711 29.3969L36.2402 20.666L35.0732 21.9194L42.4642 29.3969L35.0299 36.8311L36.2402 38.0414ZM18.3461 38.1278L19.686 36.8744L12.2086 29.4833L19.6428 22.0491L18.3461 20.8389L9.70168 29.4833L18.3461 38.1278Z" fill="#E3E3E3"/>
</svg>
